<?xml version="1.0" encoding="utf-8"?>
<!-- Generator: Adobe Illustrator 16.0.0, SVG Export Plug-In . SVG Version: 6.00 Build 0)  -->
<!DOCTYPE svg PUBLIC "-//W3C//DTD SVG 1.1//EN" "http://www.w3.org/Graphics/SVG/1.1/DTD/svg11.dtd">
<svg version="1.1" id="Layer_1" xmlns="http://www.w3.org/2000/svg" xmlns:xlink="http://www.w3.org/1999/xlink" x="0px" y="0px"
	 width="1151.333px" height="288.667px" viewBox="0 0 1151.333 288.667" enable-background="new 0 0 1151.333 288.667"
	 xml:space="preserve">
<g>
	<path fill="#010101" d="M161.274,120.344l19.404,25.718c-19.888,18.147-48.745,37.575-84.188,56.881
		c-17.842,9.717-15.298,4.797-1.832-5.639c53.173-41.186,21.916-16.502,69.769-54.701
		C167.992,139.758,158.135,122.799,161.274,120.344z"/>
	<path fill="#010101" d="M112.026,110.264l8.738-9.244c0.681-0.722,1.82-0.752,2.542-0.071l9.243,8.739
		c0.723,0.683,0.754,1.823,0.073,2.545l-8.738,9.24c-0.683,0.724-1.822,0.755-2.543,0.073l-9.243-8.739
		C111.376,112.126,111.345,110.986,112.026,110.264z"/>
	<path fill="#010101" d="M176.302,82.867l30.166-0.197c-6.211,10.998-9.087,20.506-12.045,32.302
		c-3.223,12.82-3.606,3.218-3.829,0.445c-0.777-9.577-1.191-13.428,1.39-23.024C193.977,88.532,180.264,86.465,176.302,82.867z"/>
	<path fill="#010101" d="M346.612,171.118l-0.396-32.248c-26.861-2.175-61.609,0.126-101.49,6.564
		c-20.078,3.243-15.05,5.579,2.002,5.586c67.326,0.018,27.458-0.37,88.742,0.549C340.031,151.635,342.623,171.099,346.612,171.118z"
		/>
	<path fill="#010101" d="M346.414,209.574l-0.397-32.248c-26.864-2.177-61.609,0.126-101.492,6.563
		c-20.075,3.241-15.048,5.58,2.003,5.586c67.326,0.021,27.458-0.366,88.743,0.549C339.832,190.091,342.424,209.554,346.414,209.574z
		"/>
	<path fill="#010101" d="M279.346,92.386l8.745-9.251c0.684-0.724,1.823-0.753,2.546-0.073l9.25,8.748
		c0.724,0.682,0.757,1.823,0.072,2.542l-8.747,9.254c-0.682,0.721-1.822,0.755-2.544,0.069l-9.25-8.743
		C278.694,94.25,278.662,93.109,279.346,92.386z"/>
	<path fill="#010101" d="M490.296,208.506l0.034-32.266c-26.844-2.535-61.635-0.694-101.619,5.216
		c-20.127,2.971-15.129,5.379,1.931,5.609c67.349,0.918,27.473,0,88.77,1.729C483.975,188.926,486.306,208.43,490.296,208.506z"/>
	<path fill="#010101" d="M411.892,96.848l30.211,0.414c-6.372,17.105-9.382,31.957-12.514,50.392
		c-3.4,20.034-3.651,4.961-3.837,0.605c-0.645-15.042-1.01-21.102,1.709-36.087C429.515,106.162,415.808,102.591,411.892,96.848z"/>
	<path fill="#010101" d="M452.898,83.912l30.209,0.414c-6.368,17.1-9.381,31.953-12.51,50.392
		c-3.404,20.034-3.656,4.958-3.841,0.605c-0.643-15.042-1.007-21.101,1.709-36.088C470.519,93.22,456.815,89.652,452.898,83.912z"/>
	<path fill="#010101" d="M597.896,121.614l18.772,27.104c-21.086,17.721-51.396,36.389-88.435,54.656
		c-18.646,9.192-15.84,4.268-1.64-5.838c56.075-39.905,23.091-15.963,73.603-53.032C603.96,141.747,594.585,123.997,597.896,121.614
		z"/>
	<path fill="#010101" d="M612.458,82.585l26.439-0.161c-5.443,8.829-7.96,16.467-10.56,25.94c-2.824,10.298-3.157,2.586-3.356,0.358
		c-0.679-7.688-1.045-10.785,1.218-18.486C627.952,87.132,615.929,85.473,612.458,82.585z"/>
	<path fill="#010101" d="M566.211,82.809l26.443-0.104c-5.216,5.574-7.291,9.5-10.56,16.968c-2.929,6.688-3.588,0.36-3.612,0.234
		c-0.834-4.19-1.261-5.788-0.904-9.361C577.827,88.044,566.836,86.53,566.211,82.809z"/>
	<path fill="#010101" d="M834.736,83.576l35.162-0.034c2.758,29.251,0.756,67.167-5.68,110.738
		c-3.243,21.935-5.866,16.486-6.116-2.108c-1.002-73.389-0.005-29.939-1.887-96.732C856.073,90.465,834.819,87.923,834.736,83.576z"
		/>
	<path fill="#010101" d="M896.452,84.531l28.198-0.171c-5.808,9.417-8.497,17.562-11.263,27.666
		c-3.012,10.982-3.372,2.758-3.58,0.381c-0.725-8.202-1.114-11.5,1.3-19.719C912.969,89.381,900.152,87.61,896.452,84.531z"/>
	<path fill="#010101" d="M805.71,118.991l28.197-0.111c-5.567,5.945-7.781,10.135-11.262,18.101
		c-3.125,7.13-3.827,0.381-3.857,0.247c-0.89-4.469-1.342-6.174-0.964-9.984C818.092,124.574,806.37,122.959,805.71,118.991z"/>
	<path fill="#010101" d="M778.612,171.118l-0.396-32.248c-26.861-2.175-61.609,0.126-101.49,6.564
		c-20.078,3.243-15.05,5.579,2.002,5.586c67.326,0.018,27.459-0.37,88.742,0.549C772.031,151.635,774.622,171.099,778.612,171.118z"
		/>
	<path fill="#010101" d="M778.414,209.574l-0.397-32.248c-26.863-2.177-61.609,0.126-101.492,6.563
		c-20.074,3.241-15.048,5.58,2.004,5.586c67.326,0.021,27.459-0.366,88.743,0.549C771.832,190.091,774.424,209.554,778.414,209.574z
		"/>
	<path fill="#010101" d="M711.346,92.386l8.745-9.251c0.684-0.724,1.822-0.753,2.546-0.073l9.251,8.748
		c0.723,0.682,0.757,1.823,0.072,2.542l-8.748,9.254c-0.682,0.721-1.821,0.755-2.544,0.069l-9.251-8.743
		C710.694,94.25,710.661,93.109,711.346,92.386z"/>
	<path fill="#010101" d="M1030.396,122.114l18.772,27.104c-21.086,17.721-51.396,36.389-88.435,54.656
		c-18.646,9.192-15.84,4.268-1.64-5.838c56.074-39.905,23.091-15.963,73.603-53.032
		C1036.46,142.247,1027.085,124.497,1030.396,122.114z"/>
	<path fill="#010101" d="M1044.958,83.085l26.439-0.161c-5.443,8.829-7.96,16.467-10.56,25.94
		c-2.824,10.298-3.157,2.586-3.356,0.358c-0.679-7.688-1.045-10.785,1.218-18.486C1060.452,87.632,1048.429,85.973,1044.958,83.085z
		"/>
	<path fill="#010101" d="M998.711,83.309l26.443-0.104c-5.216,5.574-7.291,9.5-10.56,16.968c-2.93,6.688-3.589,0.36-3.612,0.234
		c-0.834-4.19-1.261-5.788-0.904-9.361C1010.327,88.544,999.337,87.03,998.711,83.309z"/>
</g>
</svg>
