<?xml version="1.0" encoding="utf-8"?>
<!-- Generator: Adobe Illustrator 16.0.0, SVG Export Plug-In . SVG Version: 6.00 Build 0)  -->
<!DOCTYPE svg PUBLIC "-//W3C//DTD SVG 1.1//EN" "http://www.w3.org/Graphics/SVG/1.1/DTD/svg11.dtd">
<svg version="1.1" id="Layer_1" xmlns="http://www.w3.org/2000/svg" xmlns:xlink="http://www.w3.org/1999/xlink" x="0px" y="0px"
	 width="576px" height="506.25px" viewBox="0 0 576 506.25" enable-background="new 0 0 576 506.25" xml:space="preserve">
<path fill-rule="evenodd" clip-rule="evenodd" d="M195.167,118c-3.25,0-6.5,0-9.75,0c0-0.25,0-0.5,0-0.75
	c-1.706-1.189-2.183-2.344-4.5-3c0,0.25,0,0.5,0,0.75c-2.713,1.708-8.002,11.776-6,18c0.25,0,0.5,0,0.75,0
	c0.25,1.25,0.5,2.5,0.75,3.75c1,0.75,2,1.5,3,2.25c0,0.25,0,0.5,0,0.75c1,0.25,2,0.5,3,0.75c0,0.25,0,0.5,0,0.75c0.5,0,1,0,1.5,0
	c1.403,1.176,0.822,6.513,0.75,9c-0.851,0.633-0.109-0.095-0.75,0.75c-2.75-1-5.5-2-8.25-3c0-0.25,0-0.5,0-0.75c-0.5,0-1,0-1.5,0
	c-1-1.25-2-2.5-3-3.75c-0.75-0.5-1.5-1-2.25-1.5c0-0.5,0-1,0-1.5c-0.25,0-0.5,0-0.75,0c-0.25-1-0.5-2-0.75-3c-0.25,0-0.5,0-0.75,0
	c0-1,0-2,0-3c-0.25,0-0.5,0-0.75,0c-1.476-4.995,0.936-14.331,2.25-17.25c0.25,0,0.5,0,0.75,0c0-0.5,0-1,0-1.5c0.25,0,0.5,0,0.75,0
	c0.25-1,0.5-2,0.75-3c0.5-0.25,1-0.5,1.5-0.75c0-0.5,0-1,0-1.5c0.75-0.5,1.5-1,2.25-1.5c0-0.5,0-1,0-1.5c1.75-1.5,3.5-3,5.25-4.5
	C185.475,105.603,193.518,111.221,195.167,118z"/>
<path fill-rule="evenodd" clip-rule="evenodd" d="M381.167,118c0.905-4.679,4.604-7.016,7.5-9.75c0.25-0.5,0.5-1,0.75-1.5
	c0.5,0,1,0,1.5,0c0.25-0.5,0.5-1,0.75-1.5c0.5,0,1,0,1.5,0c0-0.25,0-0.5,0-0.75c0.5,0,1,0,1.5,0c0-0.25,0-0.5,0-0.75
	c0.75-0.25,1.5-0.5,2.25-0.75c0,0.25,0,0.5,0,0.75c3.473,0.876,3.541,2.837,5.25,5.25c0.75,0.5,1.5,1,2.25,1.5c0,0.5,0,1,0,1.5
	c0.5,0.25,1,0.5,1.5,0.75c0,0.5,0,1,0,1.5c0.25,0,0.5,0,0.75,0c0.5,1.5,1,3,1.5,4.5c0.25,0,0.5,0,0.75,0
	c1.007,2.334,2.682,11.936,1.5,15.75c-0.25,0-0.5,0-0.75,0c0,1,0,2,0,3c-0.25,0-0.5,0-0.75,0c-0.5,1.5-1,3-1.5,4.5
	c-0.75,0.5-1.5,1-2.25,1.5c-1,1.25-2,2.5-3,3.75c-0.5,0-1,0-1.5,0c0,0.25,0,0.5,0,0.75c-0.5,0-1,0-1.5,0c-0.25,0.5-0.5,1-0.75,1.5
	c-1.634,0.84-4.379,0.79-6,1.5c0-0.25,0-0.5,0-0.75c-1.262-1.364-0.824-5.67-0.75-8.25c3.272-1.348,7.313-3.018,8.25-6.75
	c1.135-1.057,2.416-6.854,1.5-9.75c-0.25,0-0.5,0-0.75,0c0-1,0-2,0-3c-0.25,0-0.5,0-0.75,0c-0.25-1-0.5-2-0.75-3
	c-0.25,0-0.5,0-0.75,0c0-0.5,0-1,0-1.5c-0.5-0.25-1-0.5-1.5-0.75c0-0.5,0-1,0-1.5c-0.25,0-0.5,0-0.75,0c-0.25-0.5-0.5-1-0.75-1.5
	c-0.5,0-1,0-1.5,0C391.672,118.342,387.686,118.18,381.167,118z"/>
<g>
	<path d="M279.167,85 M226.667,148c4.089,0.354,10.658,1.212,13.5,3c0.25,0.5,0.5,1,0.75,1.5c0.5,0,1,0,1.5,0c0,0.25,0,0.5,0,0.75
		c0.75,0.5,1.5,1,2.25,1.5c0,0.5,0,1,0,1.5c0.5,0.25,1,0.5,1.5,0.75c0.25,1.5,0.5,3,0.75,4.5c0.25,0,0.5,0,0.75,0
		c0.451,1.497-0.104,0.646,0.75,1.5c1.52-3.332,13.704-12.779,18.75-6.75c0.5,0,1,0,1.5,0c0.25,0.5,0.5,1,0.75,1.5
		c0.25,0,0.5,0,0.75,0c0,0.5,0,1,0,1.5c0.75,0.5,1.5,1,2.25,1.5c1.25,4.25,2.5,8.5,3.75,12.75c0.355,3.881,0.405,9.452-1.5,11.25
		c-0.5,0.75-1,1.5-1.5,2.25c-4.51,0.813-10.163,1.018-14.25-0.75c0-0.25,0-0.5,0-0.75c-1-0.25-2-0.5-3-0.75c0-0.25,0-0.5,0-0.75
		c-1.25-0.25-2.5-0.5-3.75-0.75c0-0.25,0-0.5,0-0.75c-0.75-0.25-1.5-0.5-2.25-0.75c-0.25-0.5-0.5-1-0.75-1.5c-0.5,0-1,0-1.5,0
		c-0.25-0.5-0.5-1-0.75-1.5c-0.5,0-1,0-1.5,0c0-0.25,0-0.5,0-0.75c-0.25,0-0.5,0-0.75,0c0-2,0-4,0-6c-0.25,0-0.5,0-0.75,0
		c-0.25-1-0.5-2-0.75-3c-1.25-1-2.5-2-3.75-3c-0.25-0.5-0.5-1-0.75-1.5c-0.5,0-1,0-1.5,0c-0.25-0.5-0.5-1-0.75-1.5c-0.5,0-1,0-1.5,0
		c0-0.25,0-0.5,0-0.75c-0.5,0-1,0-1.5,0c0-0.25,0-0.5,0-0.75c-1.5-0.5-3-1-4.5-1.5c0-0.25,0-0.5,0-0.75c-1,0-2,0-3,0
		c0-0.25,0-0.5,0-0.75c-2.324-0.679-7.57,1.044-9,1.5c-2.25,0.25-4.5,0.5-6.75,0.75c0,0.25,0,0.5,0,0.75c-4,0.5-8,1-12,1.5
		c0-9.499,0-19.001,0-28.5c-3,0-6,0-9,0c0,9.249,0,18.501,0,27.75c-17.116,0.06-30.616-16.839-30.75-33.75c-0.5,0-1,0-1.5,0
		c-0.25,0.75-0.5,1.5-0.75,2.25c-0.25,0-0.5,0-0.75,0c0,0.5,0,1,0,1.5c-0.5,0.25-1,0.5-1.5,0.75c0,0.5,0,1,0,1.5
		c-0.5,0.25-1,0.5-1.5,0.75c0,0.5,0,1,0,1.5c-0.5,0.25-1,0.5-1.5,0.75c0,0.5,0,1,0,1.5c-0.5,0.25-1,0.5-1.5,0.75c0,0.5,0,1,0,1.5
		c-0.5,0.25-1,0.5-1.5,0.75c0,0.5,0,1,0,1.5c-0.5,0.25-1,0.5-1.5,0.75c0,0.5,0,1,0,1.5c-0.5,0.25-1,0.5-1.5,0.75
		c-1.844,2.768-2.408,5.761-5.25,7.5c0.37,3.896,3.104,12.655,1.5,18c-0.25,0-0.5,0-0.75,0c0,1,0,2,0,3c-0.25,0-0.5,0-0.75,0
		c-0.5,1.5-1,3-1.5,4.5c-0.25,0-0.5,0-0.75,0c0,0.75,0,1.5,0,2.25c-0.25,0-0.5,0-0.75,0c-1.262,3.943,0.598,17.699,1.5,20.25
		c0.25,0,0.5,0,0.75,0c0,0.75,0,1.5,0,2.25c0.25,0,0.5,0,0.75,0c0,0.75,0,1.5,0,2.25c0.25,0,0.5,0,0.75,0c0,0.5,0,1,0,1.5
		c0.25,0,0.5,0,0.75,0c0.25,1.25,0.5,2.5,0.75,3.75c0.5,0.25,1,0.5,1.5,0.75c0.25,1,0.5,2,0.75,3c0.5,0.25,1,0.5,1.5,0.75
		c0,0.5,0,1,0,1.5c0.5,0.25,1,0.5,1.5,0.75c1.25,1.5,2.5,3,3.75,4.5c1.783,1.263,3.86,1.4,5.25,3c0.25,0,0.5,0,0.75,0
		c-0.316-2.978-1.527-5.172-2.25-7.5c-0.25-4-0.5-8-0.75-12c0-1.75,0-3.5,0-5.25c0.72-2.263,2.402-4.089,3-6.75
		c3.233-0.711,6.078-2.73,9-3.75c1.25,0,2.5,0,3.75,0c0-0.25,0-0.5,0-0.75c0.25,0,0.5,0,0.75,0c1.321,6.627,3.672,12.576,6,18
		c1.25-0.25,2.5-0.5,3.75-0.75c0.019-7.112,0.501-13.061,1.5-18.75c3.75,0,7.5,0,11.25,0c-0.337,1.995-0.883,7.548,0,10.5
		c0.25,0,0.5,0,0.75,0c0.25,1.75,0.5,3.5,0.75,5.25c1.25,0,2.5,0,3.75,0c0.2-5.495,2.157-8.913,3-13.5
		c7.324,0.371,10.435,4.418,14.25,8.25c0.75,0.5,1.5,1,2.25,1.5c1.15,1.259,0.583,1.909,2.25,3c-0.137,3.976-0.878,6.181-2.25,9
		c-0.25,0-0.5,0-0.75,0c-0.75,2.25-1.5,4.5-2.25,6.75c-0.25,0-0.5,0-0.75,0c0,0.5,0,1,0,1.5c-0.25,0-0.5,0-0.75,0c0,0.5,0,1,0,1.5
		c-0.25,0-0.5,0-0.75,0c0,0.5,0,1,0,1.5c-0.25,0-0.5,0-0.75,0c0,0.5,0,1,0,1.5c-0.25,0-0.5,0-0.75,0c0,0.5,0,1,0,1.5
		c-0.5,0.25-1,0.5-1.5,0.75c0,0.5,0,1,0,1.5c-0.944,1.667-2.955,4.967-4.5,6c-0.851,0.84,0.007,0.32-1.5,0.75
		c-0.905-1.087-3.61-2.643-5.25-3c-0.451-1.497,0.104-0.646-0.75-1.5c0-0.25,0-0.5,0-0.75c-0.75,0.25-1.5,0.5-2.25,0.75
		c-0.091,4.416-0.069,7.806,2.25,9.75c-0.962,3.554-4.306,4.622-6,7.5c-4.8-0.188-9.608-5.034-10.5-9c-1.04-1.056-1.484-3.837-1.5-6
		c-0.75,0-1.5,0-2.25,0c0,0.25,0,0.5,0,0.75c-2.478,2.456-1.499,9.188,0,12c0.25,0,0.5,0,0.75,0c0,0.5,0,1,0,1.5
		c2.25,2,4.5,4,6.75,6c-2.283,1.311-11.704,8.792-15,6c-4.864-0.254-4.911-2.32-7.5-4.5c-0.641-0.845,0.101-0.117-0.75-0.75
		c-0.988,2.706-0.75,7.414-0.75,11.25c0,7.25,0,14.501,0,21.75c0,24.748,0,49.502,0,74.25c0.5,0,1,0,1.5,0
		c0.75-2.25,1.5-4.5,2.25-6.75c0.5-0.25,1-0.5,1.5-0.75c0.25-1.25,0.5-2.5,0.75-3.75c0.25,0,0.5,0,0.75,0c0-0.5,0-1,0-1.5
		c0.25,0,0.5,0,0.75,0c0-17.748,0-35.502,0-53.25c0.25,0,0.5,0,0.75,0c0-1.25,0-2.5,0-3.75c0.25,0,0.5,0,0.75,0c0-0.75,0-1.5,0-2.25
		c0.25,0,0.5,0,0.75,0c0-0.5,0-1,0-1.5c0.5-0.25,1-0.5,1.5-0.75c0-0.5,0-1,0-1.5c0.5-0.25,1-0.5,1.5-0.75c0-0.5,0-1,0-1.5
		c1-0.75,2-1.5,3-2.25c0.25-0.5,0.5-1,0.75-1.5c0.5,0,1,0,1.5,0c0.5-0.75,1-1.5,1.5-2.25c0.5,0,1,0,1.5,0c0.25-0.5,0.5-1,0.75-1.5
		c1-0.25,2-0.5,3-0.75c0.25-0.5,0.5-1,0.75-1.5c0.75,0,1.5,0,2.25,0c0-0.25,0-0.5,0-0.75c0.5,0,1,0,1.5,0c0-0.25,0-0.5,0-0.75
		c3.75-1.25,7.5-2.5,11.25-3.75c0.177-8.016,3.549-11.027,6.75-15.75c0-0.5,0-1,0-1.5c1-0.75,2-1.5,3-2.25c0-0.5,0-1,0-1.5
		c1.25-1,2.5-2,3.75-3c2-2.25,4-4.5,6-6.75c0.5,0,1,0,1.5,0c1-1.25,2-2.5,3-3.75c0.5,0,1,0,1.5,0c0.5-0.75,1-1.5,1.5-2.25
		c0.5,0,1,0,1.5,0c0.25-0.5,0.5-1,0.75-1.5c0.5,0,1,0,1.5,0c0.25-0.5,0.5-1,0.75-1.5c0.5,0,1,0,1.5,0c0-0.25,0-0.5,0-0.75
		c0.5,0,1,0,1.5,0c0-0.25,0-0.5,0-0.75c0.75,0,1.5,0,2.25,0c0-0.25,0-0.5,0-0.75c3.369-1.083,11.322,0.646,13.5,1.5
		c0,0.25,0,0.5,0,0.75c0.75,0,1.5,0,2.25,0c0,0.25,0,0.5,0,0.75c1.5,0.5,3,1,4.5,1.5c0,0.25,0,0.5,0,0.75c0.5,0,1,0,1.5,0
		c0.5,0.75,1,1.5,1.5,2.25c0.5,0,1,0,1.5,0c0.5,0.75,1,1.5,1.5,2.25c0.5,0,1,0,1.5,0c0.25,0.5,0.5,1,0.75,1.5c0.5,0,1,0,1.5,0
		c0.5,0.75,1,1.5,1.5,2.25c0.5,0,1,0,1.5,0c0.5,0.75,1,1.5,1.5,2.25c0.5,0,1,0,1.5,0c0.5,0.75,1,1.5,1.5,2.25c0.5,0,1,0,1.5,0
		c0.5,0.75,1,1.5,1.5,2.25c2.291,1.616,4.543,2.071,6,4.5c2.5,0,5,0,7.5,0c0.25-0.5,0.5-1,0.75-1.5c0.75-0.25,1.5-0.5,2.25-0.75
		c0.5-0.75,1-1.5,1.5-2.25c0.5,0,1,0,1.5,0c0.5-0.75,1-1.5,1.5-2.25c0.5,0,1,0,1.5,0c0.5-0.75,1-1.5,1.5-2.25c0.5,0,1,0,1.5,0
		c0.25-0.5,0.5-1,0.75-1.5c0.5,0,1,0,1.5,0c0.75-1,1.5-2,2.25-3c0.5,0,1,0,1.5,0c0.25-0.5,0.5-1,0.75-1.5c0.5,0,1,0,1.5,0
		c0.5-0.75,1-1.5,1.5-2.25c0.5,0,1,0,1.5,0c0.5-0.75,1-1.5,1.5-2.25c0.5,0,1,0,1.5,0c0-0.25,0-0.5,0-0.75c1.5-0.5,3-1,4.5-1.5
		c0-0.25,0-0.5,0-0.75c2.082-0.92,12.234-3.364,15.75-2.25c0,0.25,0,0.5,0,0.75c0.75,0,1.5,0,2.25,0c0,0.25,0,0.5,0,0.75
		c0.5,0,1,0,1.5,0c0,0.25,0,0.5,0,0.75c0.5,0,1,0,1.5,0c0.25,0.5,0.5,1,0.75,1.5c0.5,0,1,0,1.5,0c0.25,0.5,0.5,1,0.75,1.5
		c0.5,0,1,0,1.5,0c0.5,0.75,1,1.5,1.5,2.25c0.5,0,1,0,1.5,0c1,1.25,2,2.5,3,3.75c0.5,0,1,0,1.5,0c0.75,1,1.5,2,2.25,3
		c2.25,2,4.5,4,6.75,6c0,0.5,0,1,0,1.5c1.25,1,2.5,2,3.75,3c2.752,3.886,6.669,10.969,6.75,17.25c2.25,0.5,4.5,1,6.75,1.5
		c0,0.25,0,0.5,0,0.75c0.5,0,1,0,1.5,0c0,0.25,0,0.5,0,0.75c0.75,0,1.5,0,2.25,0c0,0.25,0,0.5,0,0.75c1,0.25,2,0.5,3,0.75
		c0,0.25,0,0.5,0,0.75c1,0.25,2,0.5,3,0.75c0.25,0.5,0.5,1,0.75,1.5c0.5,0,1,0,1.5,0c0.25,0.5,0.5,1,0.75,1.5c0.5,0,1,0,1.5,0
		c0.5,0.75,1,1.5,1.5,2.25c0.5,0,1,0,1.5,0c0,0.25,0,0.5,0,0.75c1,0.75,2,1.5,3,2.25c0,0.5,0,1,0,1.5c0.75,0.5,1.5,1,2.25,1.5
		c0.25,1,0.5,2,0.75,3c0.25,0,0.5,0,0.75,0c0.25,1.5,0.5,3,0.75,4.5c0.25,0,0.5,0,0.75,0c0,5,0,10.001,0,15
		c0,13.248,0,26.502,0,39.75c0.25,0,0.5,0,0.75,0c0.5,1.5,1,3,1.5,4.5c0.25,0,0.5,0,0.75,0c0,0.75,0,1.5,0,2.25c0.25,0,0.5,0,0.75,0
		c1.103,2.255,1.26,4.462,3,6c0,0.25,0,0.5,0,0.75c0.25,0,0.5,0,0.75,0c0-35.747,0-71.503,0-107.25c-1.5,0.25-3,0.5-4.5,0.75
		c0,0.25,0,0.5,0,0.75c-1.25,0-2.5,0-3.75,0c-4.716,1.434-11.699,0.791-14.25-2.25c-0.25,0-0.5,0-0.75,0c0-0.25,0-0.5,0-0.75
		c0.5,0,1,0,1.5,0c1.25-1.5,2.5-3,3.75-4.5c0.5-0.25,1-0.5,1.5-0.75c2.73-4.023,1.988-8.328,1.5-13.5c-0.25,0-0.5,0-0.75,0
		c0-0.25,0-0.5,0-0.75c-0.75,0-1.5,0-2.25,0c-0.25,2-0.5,4-0.75,6c-0.966,0.795-0.778,1.322-1.5,2.25c-0.25,0-0.5,0-0.75,0
		c0,0.5,0,1,0,1.5c-0.25,0-0.5,0-0.75,0c-1,1.25-2,2.5-3,3.75c-1.395,1.041-1.083-0.335-2.25,1.5c-5.178-0.322-5.611-3.974-9-6
		c0.5-1.5,1-3,1.5-4.5c0.25,0,0.5,0,0.75,0c0-2.25,0-4.5,0-6.75c-0.75-0.25-1.5-0.5-2.25-0.75c-0.25,0.75-0.5,1.5-0.75,2.25
		c-2.747,0.733-3.761,2.398-6.75,3c-0.5-0.899-1.199-1.049-1.5-1.5c0-0.5,0-1,0-1.5c-0.5-0.25-1-0.5-1.5-0.75c-0.5-1.5-1-3-1.5-4.5
		c-0.5-0.25-1-0.5-1.5-0.75c-0.25-1-0.5-2-0.75-3c-0.25,0-0.5,0-0.75,0c0-0.5,0-1,0-1.5c-0.25,0-0.5,0-0.75,0c0-0.5,0-1,0-1.5
		c-0.25,0-0.5,0-0.75,0c0-0.5,0-1,0-1.5c-0.25,0-0.5,0-0.75,0c0-0.5,0-1,0-1.5c-0.25,0-0.5,0-0.75,0c0-0.5,0-1,0-1.5
		c-0.25,0-0.5,0-0.75,0c0-0.5,0-1,0-1.5c-0.25,0-0.5,0-0.75,0c0-0.75,0-1.5,0-2.25c-0.25,0-0.5,0-0.75,0c-0.25-1-0.5-2-0.75-3
		c-0.25,0-0.5,0-0.75,0c0-0.75,0-1.5,0-2.25c-0.25,0-0.5,0-0.75,0c0.059-7.388,11.242-16.32,18.75-16.5
		c0.957,4.499,2.982,8.062,3,13.5c1.25,0,2.5,0,3.75,0c0.592-5.412,2.495-10.398,1.5-15.75c3.75,0,7.5,0,11.25,0
		c1.065,5.645,1.592,11.666,1.5,18.75c1.497,0.451,0.646-0.104,1.5,0.75c0.75,0,1.5,0,2.25,0c0.25-0.75,0.5-1.5,0.75-2.25
		c0.25,0,0.5,0,0.75,0c0-0.5,0-1,0-1.5c0.25,0,0.5,0,0.75,0c0-0.75,0-1.5,0-2.25c0.25,0,0.5,0,0.75,0c0-0.75,0-1.5,0-2.25
		c0.25,0,0.5,0,0.75,0c0-0.75,0-1.5,0-2.25c0.25,0,0.5,0,0.75,0c0.878-2.413-0.016-4.234,1.5-6c0-0.5,0-1,0-1.5
		c2.717,1.061,6.263,1.044,9,2.25c0,0.25,0,0.5,0,0.75c1.5,0.5,3,1,4.5,1.5c0.609,2.659,2.261,4.488,3,6.75
		c1.565,4.789-1.42,20.942-3,22.5c0,0.75,0,1.5,0,2.25c8.47-3.812,13.539-11.032,17.25-19.5c0.5-2.5,1-5,1.5-7.5
		c0.25,0,0.5,0,0.75,0c0-1,0-2,0-3c0.25,0,0.5,0,0.75,0c0-4.75,0-9.5,0-14.25c-0.25,0-0.5,0-0.75,0c0-0.75,0-1.5,0-2.25
		c-0.25,0-0.5,0-0.75,0c-0.25-1-0.5-2-0.75-3c-0.25,0-0.5,0-0.75,0c-1.547-3.558-2.826-17.134,0-20.25
		c-0.332-2.259-0.456-2.414-1.5-3.75c-0.25,0-0.5,0-0.75,0c0-0.5,0-1,0-1.5c-0.5-0.25-1-0.5-1.5-0.75c0-0.5,0-1,0-1.5
		c-0.5-0.25-1-0.5-1.5-0.75c0-0.5,0-1,0-1.5c-0.5-0.25-1-0.5-1.5-0.75c-0.25-0.75-0.5-1.5-0.75-2.25c-0.25,0-0.5,0-0.75,0
		c0-0.5,0-1,0-1.5c-0.5-0.25-1-0.5-1.5-0.75c0-0.5,0-1,0-1.5c-0.5-0.25-1-0.5-1.5-0.75c0-0.5,0-1,0-1.5c-0.5-0.25-1-0.5-1.5-0.75
		c0-0.5,0-1,0-1.5c-0.5-0.25-1-0.5-1.5-0.75c0-0.5,0-1,0-1.5c-0.5-0.25-1-0.5-1.5-0.75c0-0.5,0-1,0-1.5c-0.25,0-0.5,0-0.75,0
		c-0.25-0.75-0.5-1.5-0.75-2.25c-0.5,0-1,0-1.5,0c-0.229,17.002-13.534,33.727-30.75,33.75c0-9.249,0-18.501,0-27.75c-3,0-6,0-9,0
		c0,9.499,0,19.001,0,28.5c-8.364-0.251-16.207-2.519-23.25-4.5c-2.592-0.729-9.03,1.476-10.5,2.25c0,0.25,0,0.5,0,0.75
		c-1.5,0.5-3,1-4.5,1.5c-0.25,0.5-0.5,1-0.75,1.5c-5.184,3.488-7.619,4.604-7.5,13.5c-2.25,1.25-4.5,2.5-6.75,3.75
		c-0.25,0.5-0.5,1-0.75,1.5c-1.25,0.25-2.5,0.5-3.75,0.75c0,0.25,0,0.5,0,0.75c-1,0.25-2,0.5-3,0.75c0,0.25,0,0.5,0,0.75
		c-3.266,1.436-8.109,1.607-12.75,1.5c-0.732-0.902-1.943-1.698-3-2.25c-3.093-7.609-1.186-14.836,1.5-21
		c0.25-1.25,0.5-2.5,0.75-3.75c0.75-0.5,1.5-1,2.25-1.5c0-0.5,0-1,0-1.5c0.5-0.25,1-0.5,1.5-0.75c0-0.25,0-0.5,0-0.75
		c1.19-0.851,1.709-0.04,3-1.5c10.746-0.032,11.537,2.913,17.25,7.5c0.641,0.845-0.102,0.117,0.75,0.75c1-2.75,2-5.5,3-8.25
		c0.75-0.5,1.5-1,2.25-1.5c0-0.25,0-0.5,0-0.75c0.5,0,1,0,1.5,0c0.25-0.5,0.5-1,0.75-1.5c2.764-1.747,9.485-2.712,13.5-3
		c-0.678-2.456-2.314-3.539-3.75-5.25c-0.25,0-0.5,0-0.75,0c0-0.5,0-1,0-1.5c-1.25-1-2.5-2-3.75-3c0-0.5,0-1,0-1.5
		c-1.5-1.25-3-2.5-4.5-3.75c0-0.5,0-1,0-1.5c-1.5-1.25-3-2.5-4.5-3.75c0-0.5,0-1,0-1.5c-1.5-1.25-3-2.5-4.5-3.75c0-0.5,0-1,0-1.5
		c-1.25-1-2.5-2-3.75-3c0-0.5,0-1,0-1.5c-1.5-1.25-3-2.5-4.5-3.75c0-0.5,0-1,0-1.5c-1.25-1-2.5-2-3.75-3c0-0.5,0-1,0-1.5
		c-1.5-1.25-3-2.5-4.5-3.75c0-0.5,0-1,0-1.5c-1.5-1.25-3-2.5-4.5-3.75c0-0.5,0-1,0-1.5c-0.5-0.25-1-0.5-1.5-0.75
		c0-0.25,0-0.5,0-0.75c-0.75-0.5-1.5-1-2.25-1.5c0-0.5,0-1,0-1.5c-1.5-1.25-3-2.5-4.5-3.75c0-0.5,0-1,0-1.5
		c-1.5-1.25-3-2.5-4.5-3.75c0-0.5,0-1,0-1.5c-1.25-1-2.5-2-3.75-3c-0.25-0.75-0.5-1.5-0.75-2.25c-0.25,0-0.5,0-0.75,0
		c0-0.25,0-0.5,0-0.75c-0.25,0-0.5,0-0.75,0 M168.167,168.25c-2.166,0.544-2.487,0.805-3,3c-0.5,0-1,0-1.5,0c-0.75,1-1.5,2-2.25,3
		c-1.25,1-2.5,2-3.75,3c-0.25,0.5-0.5,1-0.75,1.5c-0.5,0-1,0-1.5,0c-0.5,0.75-1,1.5-1.5,2.25c-0.25,0-0.5,0-0.75,0
		c0.617-3.017,2.022-5.778,3-8.25c2.223-5.622,2.584-12.176,6.75-15.75c0-0.25,0-0.5,0-0.75c2.778,1.942,6.668,2.888,7.5,6.75
		c0.25,0,0.5,0,0.75,0C171.59,164.308,168.709,166.42,168.167,168.25z M275.417,210.25c-0.572,2.041-0.178,1.708-2.25,2.25
		c0,0.5,0,1,0,1.5c-1.671,0.456-1.881,0.622-3,1.5c0,0.25,0,0.5,0,0.75c-0.5,0-1,0-1.5,0c-0.25,0.5-0.5,1-0.75,1.5
		c-1,0.25-2,0.5-3,0.75c0,0.25,0,0.5,0,0.75c-1.25,0-2.5,0-3.75,0c0,0.25,0,0.5,0,0.75c-3.082,0.872-8.121-1.457-9.75-2.25
		c-1-0.25-2-0.5-3-0.75c-0.25-0.5-0.5-1-0.75-1.5c-0.5,0-1,0-1.5,0c-0.75-1-1.5-2-2.25-3c-0.5,0-1,0-1.5,0c-0.5-0.75-1-1.5-1.5-2.25
		c-3.25-3-6.5-6-9.75-9c0-0.5,0-1,0-1.5c-0.5,0-1,0-1.5,0c0-0.5,0-1,0-1.5c-0.5,0-1,0-1.5,0c0-0.5,0-1,0-1.5
		c-0.5-0.25-1-0.5-1.5-0.75c0-0.25,0-0.5,0-0.75c-0.5,0-1,0-1.5,0c-1.25-1.5-2.5-3-3.75-4.5c-0.5,0-1,0-1.5,0
		c-0.25-0.5-0.5-1-0.75-1.5c-0.5,0-1,0-1.5,0c-0.25-0.5-0.5-1-0.75-1.5c-1-0.25-2-0.5-3-0.75c-0.25-0.5-0.5-1-0.75-1.5
		c-0.5,0-1,0-1.5,0c0-0.25,0-0.5,0-0.75c-0.5,0-1,0-1.5,0c0-0.25,0-0.5,0-0.75c-0.75,0-1.5,0-2.25,0c0-0.25,0-0.5,0-0.75
		c-0.5,0-1,0-1.5,0c0-0.25,0-0.5,0-0.75c-0.5,0-1,0-1.5,0c-2.223-1.081-4.1-2.173-7.5-2.25c0-0.25,0-0.5,0-0.75
		c2.756-0.621,4.411-1.788,6.75-3c0-0.25,0-0.5,0-0.75c0.75,0,1.5,0,2.25,0c0-0.25,0-0.5,0-0.75c1-0.25,2-0.5,3-0.75
		c0-0.25,0-0.5,0-0.75c1.965-0.855,4.496-0.184,6-1.5c3,0.25,6,0.5,9,0.75c1.75,2,3.5,4,5.25,6c0.5,0.25,1,0.5,1.5,0.75
		c0,0.5,0,1,0,1.5c0.75,0.5,1.5,1,2.25,1.5c0,0.5,0,1,0,1.5c0.75,0.5,1.5,1,2.25,1.5c0,0.5,0,1,0,1.5c1,0.75,2,1.5,3,2.25
		c0,0.5,0,1,0,1.5c0.75,0.5,1.5,1,2.25,1.5c0,0.5,0,1,0,1.5c0.75,0.5,1.5,1,2.25,1.5c0,0.5,0,1,0,1.5c1.25,1,2.5,2,3.75,3
		c0,0.5,0,1,0,1.5c0.75,0.5,1.5,1,2.25,1.5c1.75,2,3.5,4,5.25,6c4.714,4.56,11.415,5.76,18,2.25c1.56-0.832,1.825-0.154,3-1.5
		c0.25,0,0.5,0,0.75,0C275.525,210.345,276.268,209.617,275.417,210.25z M378.917,180.25c-1.75,0.25-3.5,0.5-5.25,0.75
		c0,0.25,0,0.5,0,0.75c-0.75,0-1.5,0-2.25,0c0,0.25,0,0.5,0,0.75c-1,0.25-2,0.5-3,0.75c0,0.25,0,0.5,0,0.75c-0.75,0-1.5,0-2.25,0
		c-0.25,0.5-0.5,1-0.75,1.5c-0.75,0-1.5,0-2.25,0c-0.25,0.5-0.5,1-0.75,1.5c-1,0.25-2,0.5-3,0.75c-0.25,0.5-0.5,1-0.75,1.5
		c-0.5,0-1,0-1.5,0c-0.25,0.5-0.5,1-0.75,1.5c-0.5,0-1,0-1.5,0c-0.75,1-1.5,2-2.25,3c-1.851,1.787-3.633,1.528-4.5,4.5
		c-0.5,0-1,0-1.5,0c0,0.5,0,1,0,1.5c-0.5,0-1,0-1.5,0c-0.82,3.119-3.305,4.054-5.25,6c-2,2.25-4,4.5-6,6.75c-0.5,0-1,0-1.5,0
		c-0.75,1-1.5,2-2.25,3c-0.5,0-1,0-1.5,0c-0.25,0.5-0.5,1-0.75,1.5c-1,0.25-2,0.5-3,0.75c0,0.25,0,0.5,0,0.75
		c-1.127,0.497-8.082,1.962-9.75,1.5c-2.25-0.75-4.5-1.5-6.75-2.25c-0.25-0.5-0.5-1-0.75-1.5c-0.5,0-1,0-1.5,0c0-0.25,0-0.5,0-0.75
		c-1.121-0.882-1.335-1.027-3-1.5c0-0.5,0-1,0-1.5c-0.75-0.25-1.5-0.5-2.25-0.75c-0.451-1.497,0.104-0.646-0.75-1.5
		c0-0.25,0-0.5,0-0.75c3.078,1.411,8.766,5.469,14.25,3.75c5.382-1.688,8.452-6.182,12-9.75c1-0.75,2-1.5,3-2.25c0-0.5,0-1,0-1.5
		c1.25-1,2.5-2,3.75-3c0-0.5,0-1,0-1.5c0.75-0.5,1.5-1,2.25-1.5c0-0.5,0-1,0-1.5c0.75-0.5,1.5-1,2.25-1.5c0-0.5,0-1,0-1.5
		c1-0.75,2-1.5,3-2.25c0.25-0.75,0.5-1.5,0.75-2.25c0.5-0.25,1-0.5,1.5-0.75c0-0.5,0-1,0-1.5c1-0.75,2-1.5,3-2.25c0-0.5,0-1,0-1.5
		c0.5-0.25,1-0.5,1.5-0.75c1.5-1.75,3-3.5,4.5-5.25c0.75,0,1.5,0,2.25,0c0-0.25,0-0.5,0-0.75c5.992,0.086,10.039,0.397,14.25,2.25
		c0,0.25,0,0.5,0,0.75c0.5,0,1,0,1.5,0c0,0.25,0,0.5,0,0.75c0.75,0,1.5,0,2.25,0c0,0.25,0,0.5,0,0.75
		c2.318,1.197,4.003,2.439,6.75,3C378.917,179.75,378.917,180,378.917,180.25z M423.167,181c-0.75-0.5-1.5-1-2.25-1.5
		c0-0.25,0-0.5,0-0.75c-0.5,0-1,0-1.5,0c-0.25-0.5-0.5-1-0.75-1.5c-1.801-1.701-5.052-5.362-7.5-6c-0.544-2.165-0.806-2.487-3-3
		c-0.803-2.894-2.246-2.356-3-5.25c0.949-0.79,0.754-1.45,1.5-2.25c1.432-1.536,4.697-3.575,6.75-4.5c0.25,0.75,0.5,1.5,0.75,2.25
		c0.5,0.25,1,0.5,1.5,0.75c0.25,1,0.5,2,0.75,3c0.25,0,0.5,0,0.75,0c0,0.75,0,1.5,0,2.25c0.25,0,0.5,0,0.75,0c0,0.5,0,1,0,1.5
		c0.25,0,0.5,0,0.75,0c0.25,1.5,0.5,3,0.75,4.5c0.25,0,0.5,0,0.75,0c0,0.75,0,1.5,0,2.25c0.25,0,0.5,0,0.75,0c0,0.75,0,1.5,0,2.25
		c0.25,0,0.5,0,0.75,0c0.25,1.5,0.5,3,0.75,4.5c0.25,0,0.5,0,0.75,0C423.167,180,423.167,180.5,423.167,181z"/>
</g>
<g>
	<path d="M420.167,72.25c0,0.25,0,0.5,0,0.75c-1.75,0-3.5,0-5.25,0c0,0.25,0,0.5,0,0.75c-1.25,0-2.5,0-3.75,0c0,0.25,0,0.5,0,0.75
		c-1,0-2,0-3,0c0,0.25,0,0.5,0,0.75c-1,0-2,0-3,0c0,0.25,0,0.5,0,0.75c-0.75,0-1.5,0-2.25,0c0,0.25,0,0.5,0,0.75
		c-0.75,0-1.5,0-2.25,0c0,0.25,0,0.5,0,0.75c-0.75,0-1.5,0-2.25,0c0,0.25,0,0.5,0,0.75c-0.75,0-1.5,0-2.25,0c0,0.25,0,0.5,0,0.75
		c-1,0.25-2,0.5-3,0.75c0,0.25,0,0.5,0,0.75c-2.25,0.75-4.5,1.5-6.75,2.25c-0.25,0.5-0.5,1-0.75,1.5c-1,0.25-2,0.5-3,0.75
		c0,0.25,0,0.5,0,0.75c-0.75,0.25-1.5,0.5-2.25,0.75c-0.25,0.5-0.5,1-0.75,1.5c-0.5,0-1,0-1.5,0c-0.5,0.75-1,1.5-1.5,2.25
		c-2,1.75-4,3.5-6,5.25c0,0.5,0,1,0,1.5c-1,0.75-2,1.5-3,2.25c-0.5,1.5-1,3-1.5,4.5c-0.5,0.25-1,0.5-1.5,0.75c0,0.75,0,1.5,0,2.25
		c-0.25,0-0.5,0-0.75,0c0,0.5,0,1,0,1.5c-0.25,0-0.5,0-0.75,0c-0.25,1.25-0.5,2.5-0.75,3.75c-0.25,0-0.5,0-0.75,0c0,1,0,2,0,3
		c-1.728,5.289-2.309,15.585,0,21c0.25,0,0.5,0,0.75,0c0.25,1.25,0.5,2.5,0.75,3.75c0.5,0.25,1,0.5,1.5,0.75c0,0.5,0,1,0,1.5
		c0.5,0.25,1,0.5,1.5,0.75c1.25,1.5,2.5,3,3.75,4.5c0.5,0,1,0,1.5,0c0,0.25,0,0.5,0,0.75c0.926,0.718,1.451,0.548,2.25,1.5
		c0.25,0,0.5,0,0.75,0c0-3.75,0-7.5,0-11.25c-1-0.75-2-1.5-3-2.25c-1.307-2.017-3.425-11.634-2.25-15.75c1.25-4,2.5-8,3.75-12
		c0.5-0.25,1-0.5,1.5-0.75c0.25-1,0.5-2,0.75-3c0.5-0.25,1-0.5,1.5-0.75c0-0.5,0-1,0-1.5c0.75-0.5,1.5-1,2.25-1.5
		c1-1.25,2-2.5,3-3.75c0.5,0,1,0,1.5,0c0.25-0.5,0.5-1,0.75-1.5c0.5,0,1,0,1.5,0c0.25-0.5,0.5-1,0.75-1.5c0.5,0,1,0,1.5,0
		c0-0.25,0-0.5,0-0.75c0.5,0,1,0,1.5,0c0-0.25,0-0.5,0-0.75c0.5,0,1,0,1.5,0c0-0.25,0-0.5,0-0.75c0.5,0,1,0,1.5,0
		c0-0.25,0-0.5,0-0.75c1.5-0.5,3-1,4.5-1.5c0-0.25,0-0.5,0-0.75c6.5-2,13-4,19.5-6c4.25-0.25,8.5-0.5,12.75-0.75
		c0-0.25,0-0.5,0-0.75c5.25,0.25,10.5,0.5,15.75,0.75c0,37.496,0,75.004,0,112.5c0,12.499,0,25.001,0,37.5c-0.5,0.25-1,0.5-1.5,0.75
		c-0.25,1-0.5,2-0.75,3c-0.5,0.25-1,0.5-1.5,0.75c0,0.5,0,1,0,1.5c-0.25,0-0.5,0-0.75,0c-0.25,0.75-0.5,1.5-0.75,2.25
		c-0.5,0.25-1,0.5-1.5,0.75c0,0.5,0,1,0,1.5c-0.5,0.25-1,0.5-1.5,0.75c-0.25,0.75-0.5,1.5-0.75,2.25c-0.75,0.5-1.5,1-2.25,1.5
		c0,0.5,0,1,0,1.5c-1,0.75-2,1.5-3,2.25c0,0.5,0,1,0,1.5c-0.75,0.5-1.5,1-2.25,1.5c0,28.497,0,57.003,0,85.5
		c0,8.249,0,16.501,0,24.75c-0.25,3.999-0.5,8.001-0.75,12c-0.25,0-0.5,0-0.75,0c-0.5,1.5-1,3-1.5,4.5c-0.25,0-0.5,0-0.75,0
		c0,0.5,0,1,0,1.5c-0.75,0.5-1.5,1-2.25,1.5c0,0.5,0,1,0,1.5c-1,0.75-2,1.5-3,2.25c0,0.5,0,1,0,1.5c-1,0.75-2,1.5-3,2.25
		c-0.25,0.5-0.5,1-0.75,1.5c-0.5,0-1,0-1.5,0c-1.25,1.5-2.5,3-3.75,4.5c-0.5,0-1,0-1.5,0c-0.5,0.75-1,1.5-1.5,2.25c-0.5,0-1,0-1.5,0
		c-0.5,0.75-1,1.5-1.5,2.25c-0.5,0-1,0-1.5,0c-0.5,0.75-1,1.5-1.5,2.25c-0.5,0-1,0-1.5,0c-0.25,0.5-0.5,1-0.75,1.5c-0.5,0-1,0-1.5,0
		c-0.25,0.5-0.5,1-0.75,1.5c-0.75,0.25-1.5,0.5-2.25,0.75c0,0.25,0,0.5,0,0.75c-0.5,0-1,0-1.5,0c0,0.25,0,0.5,0,0.75
		c-0.5,0-1,0-1.5,0c-0.25,0.5-0.5,1-0.75,1.5c-1.5,0.5-3,1-4.5,1.5c-0.25,0.5-0.5,1-0.75,1.5c-1.5,0.5-3,1-4.5,1.5
		c-0.25,0.5-0.5,1-0.75,1.5c-1.5,0.5-3,1-4.5,1.5c-3.291,1.764-6.747,4.811-11.25,5.25c0.544-4.861,2.348-9.584,3.75-13.5
		c0.5-3.249,1-6.501,1.5-9.75c0.25,0,0.5,0,0.75,0c0-0.75,0-1.5,0-2.25c0.25,0,0.5,0,0.75,0c1-7.499,2-15.001,3-22.5
		c0.042-6.581,0.966-18.598-2.25-21.75c0-0.5,0-1,0-1.5c-0.362-0.618-8.523-3.545-9.75-3.75c0-19.248,0-38.502,0-57.75
		c0-6.813,1.447-20.438-0.75-25.5c-0.25,0-0.5,0-0.75,0c-0.25-1-0.5-2-0.75-3c-0.75-0.5-1.5-1-2.25-1.5c0-0.5,0-1,0-1.5
		c-3.75-3.999-7.5-8-11.25-12c-0.5,0-1,0-1.5,0c-0.75-1-1.5-2-2.25-3c-0.5,0-1,0-1.5,0c-0.5-0.75-1-1.5-1.5-2.25c-0.5,0-1,0-1.5,0
		c0-0.25,0-0.5,0-0.75c-0.927-0.717-1.451-0.547-2.25-1.5c-7.097,0.266-12.098,3.639-16.5,6.75c-0.5,0.75-1,1.5-1.5,2.25
		c-0.5,0-1,0-1.5,0c-0.25,0.5-0.5,1-0.75,1.5c-0.5,0-1,0-1.5,0c-0.5,0.75-1,1.5-1.5,2.25c-0.5,0-1,0-1.5,0c-0.5,0.75-1,1.5-1.5,2.25
		c-0.5,0-1,0-1.5,0c-0.5,0.75-1,1.5-1.5,2.25c-0.5,0-1,0-1.5,0c-0.5,0.75-1,1.5-1.5,2.25c-0.5,0-1,0-1.5,0c-0.25,0.5-0.5,1-0.75,1.5
		c-0.5,0-1,0-1.5,0c-0.5,0.75-1,1.5-1.5,2.25c-1,0.25-2,0.5-3,0.75c-0.25,0.5-0.5,1-0.75,1.5c-0.5,0-1,0-1.5,0
		c-0.25,0.5-0.5,1-0.75,1.5c-0.5,0-1,0-1.5,0c-0.469,0.312-0.558,1.001-1.5,1.5c0,15.248,0,30.502,0,45.75c-1,0-2,0-3,0
		c0-15.248,0-30.502,0-45.75c-0.5-0.25-1-0.5-1.5-0.75c0-0.25,0-0.5,0-0.75c-0.5,0-1,0-1.5,0c-0.25-0.5-0.5-1-0.75-1.5
		c-0.5,0-1,0-1.5,0c-0.25-0.5-0.5-1-0.75-1.5c-0.5,0-1,0-1.5,0c0-0.25,0-0.5,0-0.75c-0.5,0-1,0-1.5,0c-0.25-0.5-0.5-1-0.75-1.5
		c-0.5,0-1,0-1.5,0c-0.25-0.5-0.5-1-0.75-1.5c-0.75-0.25-1.5-0.5-2.25-0.75c-0.5-0.75-1-1.5-1.5-2.25c-0.5,0-1,0-1.5,0
		c-0.5-0.75-1-1.5-1.5-2.25c-0.5,0-1,0-1.5,0c-0.5-0.75-1-1.5-1.5-2.25c-0.5,0-1,0-1.5,0c-0.5-0.75-1-1.5-1.5-2.25c-0.5,0-1,0-1.5,0
		c-0.25-0.5-0.5-1-0.75-1.5c-0.5,0-1,0-1.5,0c-0.5-0.75-1-1.5-1.5-2.25c-0.5,0-1,0-1.5,0c-0.5-0.75-1-1.5-1.5-2.25c-0.5,0-1,0-1.5,0
		c-0.25-0.5-0.5-1-0.75-1.5c-0.5,0-1,0-1.5,0c0-0.25,0-0.5,0-0.75c-0.5,0-1,0-1.5,0c0-0.25,0-0.5,0-0.75c-1.5-0.25-3-0.5-4.5-0.75
		c0-0.25,0-0.5,0-0.75c-2.987,0.083-4.167,0.305-6,1.5c-0.25,0.5-0.5,1-0.75,1.5c-0.5,0-1,0-1.5,0c-0.25,0.5-0.5,1-0.75,1.5
		c-0.5,0-1,0-1.5,0c-0.75,1-1.5,2-2.25,3c-0.5,0-1,0-1.5,0c-0.75,1-1.5,2-2.25,3c-4.769,4.742-11.219,10.198-13.5,17.25
		c0,26.997,0,54.003,0,81c-3.389,0.755-6.76,2.471-9.75,3.75c-0.75,2.25-1.5,4.5-2.25,6.75c-1.013,3.442,0.035,18.515,0.75,21
		c0.5,4.749,1,9.501,1.5,14.25c0.25,0,0.5,0,0.75,0c0,1,0,2,0,3c0.25,0,0.5,0,0.75,0c0,1,0,2,0,3c0.25,0,0.5,0,0.75,0c0,1,0,2,0,3
		c0.25,0,0.5,0,0.75,0c0,1.25,0,2.5,0,3.75c0.25,0,0.5,0,0.75,0c1.25,5.499,2.5,11.001,3.75,16.5
		c-4.579-0.527-7.884-3.452-11.25-5.25c-1.5-0.5-3-1-4.5-1.5c-0.25-0.5-0.5-1-0.75-1.5c-1.5-0.5-3-1-4.5-1.5
		c-0.25-0.5-0.5-1-0.75-1.5c-1.5-0.5-3-1-4.5-1.5c-0.25-0.5-0.5-1-0.75-1.5c-1-0.25-2-0.5-3-0.75c0-0.25,0-0.5,0-0.75
		c-0.75-0.25-1.5-0.5-2.25-0.75c-0.25-0.5-0.5-1-0.75-1.5c-0.5,0-1,0-1.5,0c-0.25-0.5-0.5-1-0.75-1.5c-0.5,0-1,0-1.5,0
		c-0.5-0.75-1-1.5-1.5-2.25c-0.5,0-1,0-1.5,0c-0.5-0.75-1-1.5-1.5-2.25c-0.5,0-1,0-1.5,0c-0.5-0.75-1-1.5-1.5-2.25c-0.5,0-1,0-1.5,0
		c-1.25-1.5-2.5-3-3.75-4.5c-0.5,0-1,0-1.5,0c-0.25-0.5-0.5-1-0.75-1.5c-0.75-0.5-1.5-1-2.25-1.5c0-0.5,0-1,0-1.5
		c-0.75-0.5-1.5-1-2.25-1.5c0-0.25,0-0.5,0-0.75c-0.5-0.25-1-0.5-1.5-0.75c0-0.5,0-1,0-1.5c-0.75-0.5-1.5-1-2.25-1.5
		c0-0.5,0-1,0-1.5c-0.25,0-0.5,0-0.75,0c0-0.5,0-1,0-1.5c-0.25,0-0.5,0-0.75,0c0-0.5,0-1,0-1.5c-0.25,0-0.5,0-0.75,0
		c-0.25-1.5-0.5-3-0.75-4.5c-0.25,0-0.5,0-0.75,0c0-39.746,0-79.504,0-119.25c-0.5-0.25-1-0.5-1.5-0.75
		c-0.25-0.75-0.5-1.5-0.75-2.25c-1-0.75-2-1.5-3-2.25c0-0.5,0-1,0-1.5c-0.75-0.5-1.5-1-2.25-1.5c0-0.5,0-1,0-1.5
		c-0.5-0.25-1-0.5-1.5-0.75c0-0.5,0-1,0-1.5c-0.75-0.5-1.5-1-2.25-1.5c0-0.5,0-1,0-1.5c-0.5-0.25-1-0.5-1.5-0.75c0-0.5,0-1,0-1.5
		c-0.5-0.25-1-0.5-1.5-0.75c-0.25-1-0.5-2-0.75-3c-0.5-0.25-1-0.5-1.5-0.75c0-49.995,0-100.005,0-150
		c5.338-0.026,12.541-0.863,15.75,0c3,0,6,0,9,0c6.5,1.75,13,3.5,19.5,5.25c0,0.25,0,0.5,0,0.75c0.5,0,1,0,1.5,0
		c0,0.25,0,0.5,0,0.75c0.75,0,1.5,0,2.25,0c0,0.25,0,0.5,0,0.75c1.5,0.5,3,1,4.5,1.5c0,0.25,0,0.5,0,0.75c0.5,0,1,0,1.5,0
		c0,0.25,0,0.5,0,0.75c0.5,0,1,0,1.5,0c0,0.25,0,0.5,0,0.75c0.5,0,1,0,1.5,0c0,0.25,0,0.5,0,0.75c0.5,0,1,0,1.5,0
		c0.25,0.5,0.5,1,0.75,1.5c0.5,0,1,0,1.5,0c0.25,0.5,0.5,1,0.75,1.5c0.5,0,1,0,1.5,0c1,1.25,2,2.5,3,3.75c0.75,0.5,1.5,1,2.25,1.5
		c0,0.5,0,1,0,1.5c0.5,0.25,1,0.5,1.5,0.75c4.394,6.867,10.665,27.951,0.75,33.75c0,3.75,0,7.5,0,11.25
		c6.478-2.962,11.098-8.752,13.5-15.75c0-1.25,0-2.5,0-3.75c1.497-4.944,0.62-10.74-0.75-15c0-1,0-2,0-3c-0.25,0-0.5,0-0.75,0
		c0-0.5,0-1,0-1.5c-0.25,0-0.5,0-0.75,0c0-0.75,0-1.5,0-2.25c-0.25,0-0.5,0-0.75,0c0-0.5,0-1,0-1.5c-0.25,0-0.5,0-0.75,0
		c0-0.75,0-1.5,0-2.25c-0.5-0.25-1-0.5-1.5-0.75c-0.25-1-0.5-2-0.75-3c-0.5-0.25-1-0.5-1.5-0.75c0-0.5,0-1,0-1.5
		c-0.75-0.5-1.5-1-2.25-1.5c0-0.5,0-1,0-1.5c-1-0.75-2-1.5-3-2.25c-1.25-1.5-2.5-3-3.75-4.5c-0.5,0-1,0-1.5,0
		c-0.5-0.75-1-1.5-1.5-2.25c-0.5,0-1,0-1.5,0c-0.25-0.5-0.5-1-0.75-1.5c-1-0.25-2-0.5-3-0.75c-0.25-0.5-0.5-1-0.75-1.5
		c-2.25-0.75-4.5-1.5-6.75-2.25c0-0.25,0-0.5,0-0.75c-1-0.25-2-0.5-3-0.75c0-0.25,0-0.5,0-0.75c-0.75,0-1.5,0-2.25,0
		c0-0.25,0-0.5,0-0.75c-0.75,0-1.5,0-2.25,0c0-0.25,0-0.5,0-0.75c-0.75,0-1.5,0-2.25,0c0-0.25,0-0.5,0-0.75c-0.75,0-1.5,0-2.25,0
		c0-0.25,0-0.5,0-0.75c-1,0-2,0-3,0c0-0.25,0-0.5,0-0.75c-1,0-2,0-3,0c0-0.25,0-0.5,0-0.75c-1.25,0-2.5,0-3.75,0
		c0-0.25,0-0.5,0-0.75c-1.75,0-3.5,0-5.25,0c0-0.25,0-0.5,0-0.75c-11.249,0-22.501,0-33.75,0c0,97.99,0,196.01,0,294
		c0.25,0,0.5,0,0.75,0c0,0.5,0,1,0,1.5c0.25,0,0.5,0,0.75,0c0,0.5,0,1,0,1.5c0.25,0,0.5,0,0.75,0c0,0.75,0,1.5,0,2.25
		c0.5,0.25,1,0.5,1.5,0.75c0.5,1.5,1,3,1.5,4.5c0.5,0.25,1,0.5,1.5,0.75c0.25,1,0.5,2,0.75,3c0.5,0.25,1,0.5,1.5,0.75
		c0,0.5,0,1,0,1.5c0.25,0,0.5,0,0.75,0c0.25,0.75,0.5,1.5,0.75,2.25c0.5,0.25,1,0.5,1.5,0.75c0,0.5,0,1,0,1.5
		c0.5,0.25,1,0.5,1.5,0.75c0,0.25,0,0.5,0,0.75c0.5,0.25,1,0.5,1.5,0.75c0,0.5,0,1,0,1.5c1,0.75,2,1.5,3,2.25c0,0.5,0,1,0,1.5
		c1.5,1.25,3,2.5,4.5,3.75c2.5,2.749,5,5.501,7.5,8.25c0.5,0,1,0,1.5,0c1,1.25,2,2.5,3,3.75c0.5,0,1,0,1.5,0
		c0.5,0.75,1,1.5,1.5,2.25c0.5,0,1,0,1.5,0c0.25,0.5,0.5,1,0.75,1.5c0.5,0,1,0,1.5,0c0.25,0.5,0.5,1,0.75,1.5
		c0.75,0.25,1.5,0.5,2.25,0.75c0,0.25,0,0.5,0,0.75c1,0.25,2,0.5,3,0.75c0.25,0.5,0.5,1,0.75,1.5c0.5,0,1,0,1.5,0
		c0,0.25,0,0.5,0,0.75c0.5,0,1,0,1.5,0c0,0.25,0,0.5,0,0.75c0.5,0,1,0,1.5,0c0,0.25,0,0.5,0,0.75c0.5,0,1,0,1.5,0
		c0,0.25,0,0.5,0,0.75c1.5,0.5,3,1,4.5,1.5c0,0.25,0,0.5,0,0.75c0.75,0,1.5,0,2.25,0c0,0.25,0,0.5,0,0.75c0.5,0,1,0,1.5,0
		c0,0.25,0,0.5,0,0.75c2.25,0.5,4.5,1,6.75,1.5c0,0.25,0,0.5,0,0.75c2.5,0.5,5,1,7.5,1.5c8.498,2.891,21.72,4.694,33,4.5
		c-1.25-5.249-2.5-10.501-3.75-15.75c-0.25,0-0.5,0-0.75,0c-0.5-3.249-1-6.501-1.5-9.75c-2.941-9.246-4.5-20.1-4.5-32.25
		c0-6.459,0.001-11.926,1.5-16.5c0-1,0-2,0-3c0.25,0,0.5,0,0.75,0c0-0.5,0-1,0-1.5c0.25,0,0.5,0,0.75,0c0-0.75,0-1.5,0-2.25
		c0.25,0,0.5,0,0.75,0c0-0.5,0-1,0-1.5c0.5-0.25,1-0.5,1.5-0.75c0-0.5,0-1,0-1.5c0.5-0.25,1-0.5,1.5-0.75c0-0.5,0-1,0-1.5
		c0.5-0.25,1-0.5,1.5-0.75c0-0.5,0-1,0-1.5c0.5-0.25,1-0.5,1.5-0.75c0-0.5,0-1,0-1.5c0.5-0.25,1-0.5,1.5-0.75c0-0.5,0-1,0-1.5
		c1-0.75,2-1.5,3-2.25c0-0.5,0-1,0-1.5c1.25-1,2.5-2,3.75-3c0-0.5,0-1,0-1.5c2.5-2.25,5-4.5,7.5-6.75c1-1.25,2-2.5,3-3.75
		c0.5,0,1,0,1.5,0c0.5-0.75,1-1.5,1.5-2.25c0.5,0,1,0,1.5,0c0.25-0.5,0.5-1,0.75-1.5c0.5,0,1,0,1.5,0c0-0.25,0-0.5,0-0.75
		c0.5,0,1,0,1.5,0c0-0.25,0-0.5,0-0.75c0.5,0,1,0,1.5,0c0-0.25,0-0.5,0-0.75c1.5-0.25,3-0.5,4.5-0.75c0-0.25,0-0.5,0-0.75
		c2.704,0.004,4.694,0.147,6,1.5c4.638,2.718,5.878,10.5,3.75,17.25c0,1,0,2,0,3c-0.25,0-0.5,0-0.75,0c0,0.75,0,1.5,0,2.25
		c-1.014,2.617-2.605,4.886-3,8.25c-3.958,0.883-7.114,3.027-10.5,4.5c0,2,0,4,0,6c0.25,0,0.5,0,0.75,0
		c1.098,1.154,9.721,4.338,12,4.5c0,19.248,0,38.502,0,57.75c0.25,0,0.5,0,0.75,0c0,0.5,0,1,0,1.5c0.25,0,0.5,0,0.75,0
		c0,0.5,0,1,0,1.5c0.25,0,0.5,0,0.75,0c0,0.5,0,1,0,1.5c0.25,0,0.5,0,0.75,0c0,0.5,0,1,0,1.5c0.25,0,0.5,0,0.75,0c0,0.5,0,1,0,1.5
		c0.75,0.5,1.5,1,2.25,1.5c0,0.5,0,1,0,1.5c0.25,0,0.5,0,0.75,0c0.5,0.75,1,1.5,1.5,2.25c0.5,0,1,0,1.5,0c0.25,0.5,0.5,1,0.75,1.5
		c1.25,0.25,2.5,0.5,3.75,0.75c0,0.25,0,0.5,0,0.75c2.25-0.5,4.5-1,6.75-1.5c0.25-0.5,0.5-1,0.75-1.5c0.5,0,1,0,1.5,0
		c0.5-0.75,1-1.5,1.5-2.25c0.25,0,0.5,0,0.75,0c0-0.5,0-1,0-1.5c0.75-0.5,1.5-1,2.25-1.5c0.25-1,0.5-2,0.75-3c0.25,0,0.5,0,0.75,0
		c0.5-1.5,1-3,1.5-4.5c0.25,0,0.5,0,0.75,0c0-19.248,0-38.502,0-57.75c3.999-1.25,8-2.5,12-3.75c0.641-0.845-0.102-0.117,0.75-0.75
		c0-2,0-4,0-6c-0.438-0.813-8.939-4.238-10.5-4.5c-0.414-3.361-1.971-5.634-3-8.25c0-0.75,0-1.5,0-2.25c-0.25,0-0.5,0-0.75,0
		c-0.25-4.999-0.5-10-0.75-15c1.497-1.29,0.635-1.753,1.5-3c0.25,0,0.5,0,0.75,0c0.75-1,1.5-2,2.25-3c0.75,0,1.5,0,2.25,0
		c0-0.25,0-0.5,0-0.75c11.785,0.272,17.886,8.133,24,14.25c1.5,1.25,3,2.5,4.5,3.75c0.25,0.75,0.5,1.5,0.75,2.25
		c1,0.75,2,1.5,3,2.25c0,0.5,0,1,0,1.5c1,0.75,2,1.5,3,2.25c0,0.5,0,1,0,1.5c0.5,0.25,1,0.5,1.5,0.75c0,0.5,0,1,0,1.5
		c0.75,0.5,1.5,1,2.25,1.5c0.25,1,0.5,2,0.75,3c0.5,0.25,1,0.5,1.5,0.75c0,0.5,0,1,0,1.5c0.5,0.25,1,0.5,1.5,0.75c0,0.5,0,1,0,1.5
		c0.25,0,0.5,0,0.75,0c0,0.75,0,1.5,0,2.25c0.25,0,0.5,0,0.75,0c0,0.5,0,1,0,1.5c0.25,0,0.5,0,0.75,0c0,1,0,2,0,3
		c1.511,4.567,1.501,10.048,1.5,16.5c-0.002,12.014-1.586,23.036-4.5,32.25c-0.5,3.249-1,6.501-1.5,9.75c-0.25,0-0.5,0-0.75,0
		c-1.25,5.249-2.5,10.501-3.75,15.75c40.639-0.243,74.484-17.58,91.5-41.25c1-0.75,2-1.5,3-2.25c0-0.5,0-1,0-1.5
		c0.5-0.25,1-0.5,1.5-0.75c0-0.25,0-0.5,0-0.75c0.5-0.25,1-0.5,1.5-0.75c0-0.5,0-1,0-1.5c0.5-0.25,1-0.5,1.5-0.75
		c0.25-0.75,0.5-1.5,0.75-2.25c0.25,0,0.5,0,0.75,0c0-0.5,0-1,0-1.5c0.5-0.25,1-0.5,1.5-0.75c0.25-1,0.5-2,0.75-3
		c0.5-0.25,1-0.5,1.5-0.75c0.5-1.5,1-3,1.5-4.5c0.5-0.25,1-0.5,1.5-0.75c0-0.75,0-1.5,0-2.25c0.25,0,0.5,0,0.75,0c0-0.5,0-1,0-1.5
		c0.25,0,0.5,0,0.75,0c0-0.5,0-1,0-1.5c0.25,0,0.5,0,0.75,0c0-97.99,0-196.01,0-294C442.667,72.25,431.416,72.25,420.167,72.25z
		 M262.667,304c0,0.25,0,0.5,0,0.75c-1,0-2,0-3,0c-4.523,1.534-10.475,2.97-15,4.5c-3.75,0.5-7.5,1-11.25,1.5c0,0.25,0,0.5,0,0.75
		c-3.042,0.031-6.261-0.002-8.25-0.75c-0.424-1.046-0.269-1.678-0.75-3c-0.25,0-0.5,0-0.75,0c-1.11-3.432,0.457-12.618,1.5-14.25
		c0.75-0.5,1.5-1,2.25-1.5c0-0.5,0-1,0-1.5c1.5-1.25,3-2.5,4.5-3.75c0-0.5,0-1,0-1.5c4-3.749,8-7.5,12-11.25
		c1.25-1.5,2.5-3,3.75-4.5c0.5,0,1,0,1.5,0c0.5-0.75,1-1.5,1.5-2.25c1.893-1.335,4.512-2.068,6-3.75
		c6.582,0.37,5.453,3.344,9.75,4.5c0.479,2.094,1.674,3.581,2.25,5.25c1.25,9.499,2.5,19.001,3.75,28.5
		C269.167,302.5,265.916,303.25,262.667,304z M351.167,310c-0.25,0.5-0.5,1-0.75,1.5c-9.972-0.199-17.302-1.965-24.75-4.5
		c-1,0-2,0-3,0c0-0.25,0-0.5,0-0.75c-1,0-2,0-3,0c0-0.25,0-0.5,0-0.75c-1,0-2,0-3,0c0-0.25,0-0.5,0-0.75c-1,0-2,0-3,0
		c0-0.25,0-0.5,0-0.75c-3.25-0.75-6.501-1.5-9.75-2.25c1.25-9.499,2.5-19.001,3.75-28.5c0.569-1.672,1.829-3.133,2.25-5.25
		c2.252-0.596,2.92-1.771,4.5-3c0-0.25,0-0.5,0-0.75c0.75,0,1.5,0,2.25,0c0-0.25,0-0.5,0-0.75c2.568,0.11,4.298,0.391,6,1.5
		c0.5,0.75,1,1.5,1.5,2.25c0.5,0,1,0,1.5,0c0.5,0.75,1,1.5,1.5,2.25c0.5,0,1,0,1.5,0c3.749,4,7.5,8.001,11.25,12
		c1.5,1.25,3,2.5,4.5,3.75c0,0.5,0,1,0,1.5c1.5,1.25,3,2.5,4.5,3.75c0,0.5,0,1,0,1.5c0.75,0.5,1.5,1,2.25,1.5
		C352.952,296.273,353.706,307.48,351.167,310z"/>
</g>
<path fill-rule="evenodd" clip-rule="evenodd" d="M216.917,175c6.211-0.213,9.18,1.128,9,7.5c-0.867,0.516-2.075,2.155-2.25,2.25
	c-0.75,0-1.5,0-2.25,0c-3.256,1.197-4.262-0.065-7.5-0.75c-1.434-3.104-1.44-3.047-0.75-6.75
	C214.478,176.697,216.044,176.033,216.917,175z"/>
<path fill-rule="evenodd" clip-rule="evenodd" d="M354.917,175c4.188-0.146,7.397,0.56,8.25,3.75c3.773,4.076-4.239,6.878-8.25,6.75
	c0-0.25,0-0.5,0-0.75c-0.75,0-1.5,0-2.25,0c0-0.25,0-0.5,0-0.75c-2.022-1.63-2.279-2.144-2.25-6c0.75-0.5,1.5-1,2.25-1.5
	c0-0.25,0-0.5,0-0.75c0.75,0,1.5,0,2.25,0C354.917,175.5,354.917,175.25,354.917,175z"/>
</svg>
